<?xml version="1.0" encoding="UTF-8"?>
<svg version="1.1" xmlns="http://www.w3.org/2000/svg" width="512" height="512">
<path d="M0 0 C4.80326978 2.04349635 8.06693338 4.6295584 11 8.9375 C13.42542573 16.36536631 13.46152703 21.96354612 10 29 C6.24278082 33.75682311 1.96069005 37.92587587 -2.3659668 42.16064453 C-3.65853764 43.45123863 -4.94956462 44.74338051 -6.23916626 46.03694153 C-9.7295788 49.52935575 -13.24109114 52.99982196 -16.75689292 56.46665049 C-20.43298355 60.09886965 -24.08915332 63.75103087 -27.74751282 67.40109253 C-34.6714484 74.3033044 -41.61302713 81.18748394 -48.56117707 88.06531036 C-56.47335781 95.89914659 -64.36558128 103.75295903 -72.25621927 111.60848451 C-88.48208964 127.76126166 -104.73277124 143.88888256 -121 160 C-120.09105484 160.00097681 -119.18210968 160.00195362 -118.24562073 160.00296003 C-64.39303843 160.06121204 -10.54049654 160.13499364 43.31203586 160.22898628 C49.77589481 160.24025466 56.23975397 160.25139308 62.70361328 160.26245117 C63.99046976 160.26465486 65.27732625 160.26685854 66.60317838 160.269129 C87.44908212 160.30451663 108.29498582 160.3293725 129.14090848 160.35034702 C150.52532585 160.37209738 171.90970419 160.40514055 193.29408836 160.44870156 C206.4930011 160.4752314 219.69186519 160.49291697 232.89080328 160.49934604 C241.93762321 160.50459582 250.98438188 160.52079907 260.031169 160.54566566 C265.2533271 160.5596946 270.47537551 160.56884623 275.69755363 160.56500816 C280.47832557 160.56160101 285.2588631 160.5719452 290.03958702 160.59323552 C291.76918497 160.5985091 293.49880724 160.59873236 295.228405 160.59339563 C297.58072574 160.58687674 299.93227412 160.59880058 302.28453064 160.61523914 C303.59076858 160.61713775 304.89700651 160.61903635 306.24282742 160.62099248 C312.69710545 161.27207248 318.35314976 163.35314976 323 168 C326.92815905 173.41815041 326.98143707 179.5752985 326 186 C323.93230868 191.47330054 321.26143119 194.63132789 315.95474434 197.08865738 C308.35225112 200.02235635 300.45209755 199.55839773 292.43502808 199.51898193 C290.64860218 199.52486261 288.86218133 199.53249249 287.07576954 199.541713 C282.18419538 199.56192938 277.29291197 199.55743078 272.40131521 199.54880548 C267.11988162 199.54385442 261.83852047 199.56195328 256.55711365 199.57722473 C247.41247768 199.60052524 238.267921 199.60928578 229.12325668 199.60811615 C215.90169433 199.60644617 202.68023759 199.62678929 189.45870341 199.65247145 C168.00665378 199.69354469 146.55462315 199.71686341 125.10253906 199.72900391 C104.26625746 199.74083395 83.43001163 199.76103372 62.59375 199.79248047 C61.30898214 199.79441657 60.02421428 199.79635267 58.70051406 199.79834744 C52.25508548 199.80811209 45.80965717 199.81804119 39.36422896 199.82805204 C-14.09049647 199.91086372 -67.54522343 199.96485606 -121 200 C-120.32670465 200.67145176 -119.65340931 201.34290352 -118.95971107 202.0347023 C-102.58822757 218.36181549 -86.22249071 234.69467144 -69.86278725 251.03358841 C-61.95127472 258.93478194 -54.0378955 266.83408891 -46.12011719 274.72900391 C-39.22016839 281.60903792 -32.32372506 288.49256303 -25.43149412 295.38032889 C-21.78093757 299.02827483 -18.12863238 302.67443095 -14.47212601 306.31641388 C-11.03202685 309.74295937 -7.59662696 313.17414593 -4.16480446 316.60898018 C-2.90315503 317.87007846 -1.63978493 319.12945798 -0.37458992 320.38699913 C1.35033102 322.10199364 3.06899822 323.82302109 4.78622437 325.54571533 C5.29011291 326.04377819 5.79400145 326.54184105 6.31315935 327.05499673 C10.97686511 331.75904803 12.55728961 335.35934416 13 342 C12.15795088 348.91014912 9.52715003 353.99933956 4 358.375 C-0.95369647 360.89978724 -6.62489504 361.06970568 -12 360 C-17.88973329 357.0097745 -22.52049942 352.91111419 -27.12995911 348.25099182 C-27.80029684 347.58533406 -28.47063458 346.91967629 -29.16128558 346.23384708 C-31.38917691 344.01785169 -33.60627337 341.79137291 -35.82348633 339.56469727 C-37.42506958 337.96718202 -39.02728971 336.37030505 -40.63009644 334.77401733 C-44.96936263 330.44840095 -49.29911781 326.11338099 -53.62679887 321.77617764 C-58.15992789 317.23544265 -62.70038405 312.70204385 -67.2396698 308.16746521 C-75.34613005 300.06680772 -83.44500512 291.95862448 -91.54092266 283.84743433 C-98.87746937 276.49747646 -106.22185867 269.15543229 -113.57202148 261.8190918 C-122.11743416 253.28974174 -130.65777086 244.75536938 -139.19072551 236.21355098 C-143.70418463 231.69541523 -148.21964525 227.17932994 -152.7403965 222.66848946 C-156.98826418 218.42928508 -161.22873084 214.18281412 -165.46358871 209.93061447 C-167.01906198 208.37117353 -168.57709557 206.81428159 -170.13785744 205.26013374 C-172.26723798 203.13894685 -174.38716886 201.00874152 -176.50495911 198.87599182 C-177.1249882 198.2626549 -177.74501729 197.64931797 -178.38383514 197.01739508 C-183.36836897 191.96430824 -186.42787097 187.39018871 -186.4375 180.0625 C-186.45683594 179.08410156 -186.47617188 178.10570312 -186.49609375 177.09765625 C-185.33094091 169.82233183 -180.37075629 164.93563898 -175.33328247 159.95233154 C-174.66439558 159.27876468 -173.99550869 158.60519782 -173.3063525 157.91121984 C-171.07344527 155.66639041 -168.83002125 153.43238539 -166.58642578 151.19824219 C-164.97920538 149.58695492 -163.37262351 147.97503052 -161.76663208 146.36251831 C-157.40997317 141.99219502 -153.04389249 137.63140002 -148.67564249 133.27266598 C-144.10420826 128.70883148 -139.54010318 124.13767689 -134.974823 119.56768799 C-126.81752108 111.40458064 -118.65268539 103.24906151 -110.48485158 95.09649459 C-103.08314938 87.70819935 -95.68935429 80.31206765 -88.30126953 72.91015625 C-79.71442748 64.30725156 -71.1225638 55.70942391 -62.52325428 47.11897779 C-57.97380424 42.57420499 -53.4264059 38.02742914 -48.88425064 33.47536469 C-44.61469108 29.19714164 -40.33786411 24.92631948 -36.0553093 20.66110611 C-34.48458121 19.09434586 -32.91640247 17.52502504 -31.35096741 15.95297623 C-29.21440059 13.80821624 -27.06881454 11.67290367 -24.92068481 9.53973389 C-23.99381983 8.60283065 -23.99381983 8.60283065 -23.04823029 7.64700007 C-16.15421066 0.84584828 -9.69699963 -1.52914225 0 0 Z " fill="#1E201D" transform="translate(186,76)"/>
</svg>
